Coordinates
version=1
nRows=10
nColumns=38
inDegrees=yes

Units are S.I. units (second, meters, Newtons, ...)
Angles are in degrees.

endheader
time	pelvis_tilt	pelvis_list	pelvis_rotation	pelvis_tx	pelvis_ty	pelvis_tz	hip_flexion_r	hip_adduction_r	hip_rotation_r	knee_angle_r	ankle_angle_r	subtalar_angle_r	mtp_angle_r	hip_flexion_l	hip_adduction_l	hip_rotation_l	knee_angle_l	ankle_angle_l	subtalar_angle_l	mtp_angle_l	lumbar_extension	lumbar_bending	lumbar_rotation	arm_flex_r	arm_add_r	arm_rot_r	elbow_flex_r	pro_sup_r	wrist_flex_r	wrist_dev_r	arm_flex_l	arm_add_l	arm_rot_l	elbow_flex_l	pro_sup_l	wrist_flex_l	wrist_dev_l
      1.10000000	      0.97238830	     -4.98470932	      6.80076587	     -0.27184004	      0.91342965	      0.22193969	     13.04542057	      9.37952461	     -7.43208553	    -24.07972952	      5.29543693	     -3.50593837	      3.30644499	     13.90068445	     -2.63143048	      7.12124881	    -65.57511494	     -7.00858801	     -0.08730744	     18.19313103	     -6.30838785	      7.65660208	     -6.04052574	     -2.62222238	    -17.24730845	     12.53391380	     19.96163190	     86.51662706	      0.00000000	      0.00000000	      4.79053147	    -13.62792234	     25.65937702	     21.07849317	     86.51662706	      0.00000000	      0.00000000
      1.11000000	      0.82591507	     -4.52287288	      6.64923798	     -0.25914137	      0.91539214	      0.22202524	     11.79219843	      8.99058578	     -7.35735346	    -23.31343786	      5.85034345	     -2.82583136	      3.12371945	     15.66001934	     -1.88418391	      7.08381027	    -65.33707158	     -5.67045142	     -0.65356134	     18.18221789	     -6.31602840	      7.09959270	     -5.54456707	     -2.28170987	    -17.43028181	     12.64490533	     20.88713679	     86.51662706	      0.00000000	      0.00000000	      4.54191581	    -13.47964359	     26.61525543	     19.70312443	     86.51662706	      0.00000000	      0.00000000
      1.12000000	      0.66274450	     -4.05385189	      6.42848690	     -0.24644501	      0.91715834	      0.22220185	     10.56274748	      8.61108911	     -7.12468645	    -22.53827584	      6.36039108	     -2.25378861	      2.96331521	     17.34015207	     -1.20761516	      6.89496272	    -64.75034780	     -4.47461817	     -1.23354976	     18.05969560	     -6.30475655	      6.52414509	     -5.00562994	     -1.93621617	    -17.63165180	     12.76651605	     21.83269037	     86.51662706	      0.00000000	      0.00000000	      4.22111892	    -13.35141769	     27.43942340	     18.44079588	     86.51662706	      0.00000000	      0.00000000
      1.13000000	      0.49559833	     -3.59202111	      6.14754811	     -0.23374171	      0.91868905	      0.22246199	      9.35468560	      8.25730402	     -6.75384185	    -21.76035723	      6.83280906	     -1.79369794	      2.82070115	     18.92613986	     -0.61622243	      6.58310262	    -63.83098916	     -3.41963256	     -1.84902876	     17.78998123	     -6.28836354	      5.95155717	     -4.43343116	     -1.58238927	    -17.85553323	     12.88662064	     22.80466246	     86.51662706	      0.00000000	      0.00000000	      3.83776273	    -13.24401504	     28.12277759	     17.29209108	     86.51662706	      0.00000000	      0.00000000
      1.14000000	      0.33766800	     -3.14939231	      5.81747271	     -0.22103455	      0.91996099	      0.22278747	      8.16030180	      7.93955993	     -6.28052925	    -20.98501563	      7.27620513	     -1.43696983	      2.69319602	     20.40143863	     -0.11581241	      6.18505132	    -62.59426765	     -2.50811530	     -2.50983826	     17.35711952	     -6.28053931	      5.40079669	     -3.83902690	     -1.21633718	    -18.10437285	     12.99537470	     23.80660797	     86.51662706	      0.00000000	      0.00000000	      3.40312422	    -13.15798028	     28.66486333	     16.25130287	     86.51662706	      0.00000000	      0.00000000
      1.15000000	      0.20184290	     -2.73704849	      5.45116290	     -0.20833716	      0.92096925	      0.22315675	      6.96562772	      7.66136393	     -5.75045499	    -20.21524304	      7.69994892	     -1.16291659	      2.58028582	     21.75052127	      0.29394049	      5.74046312	    -61.05478816	     -1.74506120	     -3.21835256	     16.76430192	     -6.29439326	      4.88819209	     -3.23458375	     -0.83418863	    -18.37881216	     13.08579056	     24.83851457	     86.51662706	      0.00000000	      0.00000000	      2.92894862	    -13.09259434	     29.07290205	     15.30844359	     86.51662706	      0.00000000	      0.00000000
      1.16000000	      0.09985896	     -2.36508970	      5.06307133	     -0.19565869	      0.92170713	      0.22354700	      5.75197838	      7.42109161	     -5.21191725	    -19.45118248	      8.11295429	     -0.94136690	      2.48351162	     22.96021766	      0.61729270	      5.28640829	    -59.22703290	     -1.13454344	     -3.97385530	     16.03116101	     -6.34193977	      4.42707243	     -2.63289294	     -0.43271831	    -18.67771137	     13.15395044	     25.89661297	     86.51662706	      0.00000000	      0.00000000	      2.42651935	    -13.04539668	     29.36026657	     14.45117706	     86.51662706	      0.00000000	      0.00000000
      1.17000000	      0.04161596	     -2.04111085	      4.66829673	     -0.18299754	      0.92215765	      0.22393509	      4.49991882	      7.21531404	     -4.70885231	    -18.69096751	      8.52236700	     -0.73718058	      2.40603387	     24.02000676	      0.86079742	      4.85337612	    -57.12620617	     -0.67587157	     -4.77534320	     15.18953234	     -6.43339722	      4.02738257	     -2.04640247	     -0.00992122	    -18.99828957	     13.19887707	     26.97371138	     86.51662706	      0.00000000	      0.00000000	      1.90586962	    -13.01243704	     29.54465056	     13.66635204	     86.51662706	      0.00000000	      0.00000000
      1.18000000	      0.03481639	     -1.76921183	      4.28092410	     -0.17034076	      0.92231285	      0.22429959	      3.19413452	      7.04155666	     -4.27573386	    -17.93253659	      8.93264446	     -0.51576251	      2.35201468	     24.92231446	      1.03236814	      4.46322590	    -54.76898901	     -0.35998901	     -5.62191465	     14.27853553	     -6.57634785	      3.69524402	     -1.48596634	      0.43456104	    -19.33636746	     13.22210977	     28.05994197	     86.51662706	      0.00000000	      0.00000000	      1.37524818	    -12.98899449	     29.64616434	     12.94103994	     86.51662706	      0.00000000	      0.00000000
      1.19000000	      0.08435196	     -1.55058572	      3.91195866	     -0.15766310	      0.92218763	      0.22462375	      1.82701632	      6.89906868	     -3.93503941	    -17.17577412	      9.34531159	     -0.24837602	      2.32593943	     25.66327651	      1.14075373	      4.12902087	    -52.17415374	     -0.16691939	     -6.51058613	     13.33976154	     -6.77486968	      3.43263445	     -0.95970129	      0.89921361	    -19.68669761	     13.22706169	     29.14376530	     86.51662706	      0.00000000	      0.00000000	      0.84095200	    -12.97032463	     29.68556673	     12.26313506	     86.51662706	      0.00000000	      0.00000000
